<svg xmlns="http://www.w3.org/2000/svg" width="515" height="612" viewBox="0 0 515 612">
  <metadata><?xpacket begin="﻿" id="W5M0MpCehiHzreSzNTczkc9d"?>
<x:xmpmeta xmlns:x="adobe:ns:meta/" x:xmptk="Adobe XMP Core 5.6-c138 79.159824, 2016/09/14-01:09:01        ">
   <rdf:RDF xmlns:rdf="http://www.w3.org/1999/02/22-rdf-syntax-ns#">
      <rdf:Description rdf:about=""/>
   </rdf:RDF>
</x:xmpmeta>
                                                                                                    
                                                                                                    
                                                                                                    
                                                                                                    
                                                                                                    
                                                                                                    
                                                                                                    
                                                                                                    
                                                                                                    
                                                                                                    
                                                                                                    
                                                                                                    
                                                                                                    
                                                                                                    
                                                                                                    
                                                                                                    
                                                                                                    
                                                                                                    
                                                                                                    
                                                                                                    
                           
<?xpacket end="w"?></metadata>
<defs>
    <style>
      .cls-1 {
        fill: #232e5d;
        fill-rule: evenodd;
      }
    </style>
  </defs>
  <path id="Forma_1" data-name="Forma 1" class="cls-1" d="M469.062,612.5C480.077,576.954,516,453.124,516,407.494V249.036c0-21.352-17.152-38.725-38.234-38.725s-38.229,17.373-38.229,38.725V316.6a7.2,7.2,0,1,1-14.39,0V211.012c0-21.347-17.158-38.717-38.242-38.717s-38.23,17.37-38.23,38.717v75.279a7.195,7.195,0,1,1-14.389,0V180.71c0-21.343-17.153-38.706-38.235-38.706s-38.228,17.363-38.228,38.706v75.3a7.2,7.2,0,0,1-14.393,0V39.215C243.427,17.865,226.27.5,205.186,0.5s-38.237,17.365-38.237,38.715v335.7a7.193,7.193,0,0,1-12.613,4.733L64.78,277.2l-1.051-1.09A38.743,38.743,0,0,0,37.224,265.5H36.968a38.212,38.212,0,0,0-26.839,11.057C1.31,285.381-5.6,302.247,11.61,332.513c26.137,45.9,54.7,89.443,80.011,128.009,18.815,28.684,36.59,55.772,49.842,78.621,8.471,14.622,26.142,53.012,35.914,73.355H469.062v0Z"/>
</svg>
