<svg xmlns="http://www.w3.org/2000/svg" width="612" height="493" viewBox="0 0 612 493">
  <metadata><?xpacket begin="﻿" id="W5M0MpCehiHzreSzNTczkc9d"?>
<x:xmpmeta xmlns:x="adobe:ns:meta/" x:xmptk="Adobe XMP Core 5.6-c138 79.159824, 2016/09/14-01:09:01        ">
   <rdf:RDF xmlns:rdf="http://www.w3.org/1999/02/22-rdf-syntax-ns#">
      <rdf:Description rdf:about=""/>
   </rdf:RDF>
</x:xmpmeta>
                                                                                                    
                                                                                                    
                                                                                                    
                                                                                                    
                                                                                                    
                                                                                                    
                                                                                                    
                                                                                                    
                                                                                                    
                                                                                                    
                                                                                                    
                                                                                                    
                                                                                                    
                                                                                                    
                                                                                                    
                                                                                                    
                                                                                                    
                                                                                                    
                                                                                                    
                                                                                                    
                           
<?xpacket end="w"?></metadata>
<defs>
    <style>
      .cls-1 {
        fill: #232e5d;
        fill-rule: evenodd;
      }
    </style>
  </defs>
  <path id="Forma_1" data-name="Forma 1" class="cls-1" d="M608.114,4.3a14.98,14.98,0,0,0-21.178,0c-37.42,37.419-55.692,34.41-78.823,30.606-32.59-5.363-61.633-5.812-108.594,38.154,1.563,1.441,3.116,2.89,4.625,4.4l11.887,11.884c1.6,1.6,3.133,3.255,4.651,4.916,39.6-36.862,59.611-33.577,82.565-29.8,26.517,4.369,56.572,9.318,104.867-38.977A14.98,14.98,0,0,0,608.114,4.3ZM420.68,94.258h0l-0.024-.026Zm-66.635,66.364a46.672,46.672,0,0,1-8.852,53.621l-19.216,19.214,89.331,89.333c59.413-67.861,62.1-166.6,5.37-228.531q-3.849,3.579-7.948,7.676Zm-68.791,81.795,44.058-44.057a24.172,24.172,0,0,0-34.186-34.183L251.07,208.236A24.171,24.171,0,1,0,285.254,242.417ZM170.673,78.157l89.356,89.356L279.243,148.3a46.681,46.681,0,0,1,53.624-8.852l58.685-58.689c2.717-2.716,5.362-5.258,7.965-7.7-28.969-26.666-67.1-41.3-108.114-41.3C247.9,31.76,204.58,48.539,170.673,78.157ZM301.136,258.3a46.631,46.631,0,1,1-65.946-65.947l3.663-3.663-89.67-89.672L55.6,192.6c-69.582,69.581-73.838,178.541-9.488,242.891L58,447.377c29.47,29.472,69.51,45.7,112.742,45.7,47.638,0,95.076-20.117,130.148-55.191l93.582-93.582L304.8,254.639Z"/>
</svg>
