<svg xmlns="http://www.w3.org/2000/svg" width="504" height="423" viewBox="0 0 504 423">
  <metadata><?xpacket begin="﻿" id="W5M0MpCehiHzreSzNTczkc9d"?>
<x:xmpmeta xmlns:x="adobe:ns:meta/" x:xmptk="Adobe XMP Core 5.6-c138 79.159824, 2016/09/14-01:09:01        ">
   <rdf:RDF xmlns:rdf="http://www.w3.org/1999/02/22-rdf-syntax-ns#">
      <rdf:Description rdf:about=""/>
   </rdf:RDF>
</x:xmpmeta>
                                                                                                    
                                                                                                    
                                                                                                    
                                                                                                    
                                                                                                    
                                                                                                    
                                                                                                    
                                                                                                    
                                                                                                    
                                                                                                    
                                                                                                    
                                                                                                    
                                                                                                    
                                                                                                    
                                                                                                    
                                                                                                    
                                                                                                    
                                                                                                    
                                                                                                    
                                                                                                    
                           
<?xpacket end="w"?></metadata>
<defs>
    <style>
      .cls-1 {
        fill: #232e5d;
        fill-rule: evenodd;
      }
    </style>
  </defs>
  <path class="cls-1" d="M473.6,262.671h-1.141V221.153C472.462,99.765,373.453,1,251.992,1S31.526,99.765,31.526,221.153v41.518H30.389C13.634,262.671,0,275.2,0,291.951l0.064,77.634c0,16.754,13.633,30.8,30.388,30.8h2.073c3.118,15.738,15.19,23.6,29.592,23.6H78.8c16.755,0,31.473-15.634,31.473-32.4V268.255c0-17-15-29.195-31.473-29.195H74.834V217.989c0-97.9,79.2-177.564,177.166-177.564s177.162,79.659,177.162,177.564V239.06H425.2c-16.471,0-31.473,12.2-31.473,29.195V391.6c0,16.758,14.714,32.4,31.473,32.4h16.683c14.4,0,26.47-7.869,29.592-23.6h2.073c16.763,0,30.388-14.6,30.388-31.356l0.064-76.6C503.991,275.688,490.366,262.671,473.6,262.671Z"/>
</svg>
