<svg xmlns="http://www.w3.org/2000/svg" width="612" height="561" viewBox="0 0 612 561">
  <metadata><?xpacket begin="﻿" id="W5M0MpCehiHzreSzNTczkc9d"?>
<x:xmpmeta xmlns:x="adobe:ns:meta/" x:xmptk="Adobe XMP Core 5.6-c138 79.159824, 2016/09/14-01:09:01        ">
   <rdf:RDF xmlns:rdf="http://www.w3.org/1999/02/22-rdf-syntax-ns#">
      <rdf:Description rdf:about=""/>
   </rdf:RDF>
</x:xmpmeta>
                                                                                                    
                                                                                                    
                                                                                                    
                                                                                                    
                                                                                                    
                                                                                                    
                                                                                                    
                                                                                                    
                                                                                                    
                                                                                                    
                                                                                                    
                                                                                                    
                                                                                                    
                                                                                                    
                                                                                                    
                                                                                                    
                                                                                                    
                                                                                                    
                                                                                                    
                                                                                                    
                           
<?xpacket end="w"?></metadata>
<defs>
    <style>
      .cls-1 {
        fill: #232e5d;
        fill-rule: evenodd;
      }
    </style>
  </defs>
  <path id="Forma_1" data-name="Forma 1" class="cls-1" d="M561,0H51A51.051,51.051,0,0,0,0,51V433.5a51.035,51.035,0,0,0,51,51H224.578l-17.009,51H127.5a12.751,12.751,0,1,0,0,25.5h357a12.751,12.751,0,1,0,0-25.5H404.4l-16.983-51H561a51.052,51.052,0,0,0,51-51V51A51.067,51.067,0,0,0,561,0ZM306,446.251a25.5,25.5,0,1,1,25.5-25.5A25.51,25.51,0,0,1,306,446.251ZM561,382.5H51V51H561V382.5Z"/>
</svg>
